# xmcd
#
# Track frame offsets:
#	150
#	13784
#	26462
#	44113
#	61621
#	75514
#	92041
#	107791
#	123531
#	138638
#	152272
#	164950
#	182601
#	200109
#	214002
#	230529
#	246279
#	262019
#
# Disc length: 3695
#
# Revision: 1
# Processed by: cddbd v1.5.2PL0 Copyright (c) Steve Scherf et al.
# Submitted via: kJams Pro (development) 1.0patch45.9
#
DISCID=010e6d12
DTITLE=Various Artist - NSC 3020
DYEAR=1995
DGENRE=Country
TTITLE0=Toby Keith - I Wanna To Talk About Me
TTITLE1=Reba McEntire - I'm A Survivor
TTITLE2=Lonestar - With Me
TTITLE3=Montgomery Gentry - Cold One Comin' On
TTITLE4=Brad Paisley - Wrapped Around
TTITLE5=Tracy Byrd - Just Let Me Be In Love
TTITLE6=Steve Holy - Good Morning Beautiful
TTITLE7=Jamie O'Neal - Shiver
TTITLE8=Clay Walker - If You Ever Feel Like Lovin' Me Again
TTITLE9=Toby Keith - Vocals - I Wanna To Talk About Me
TTITLE10=Reba McEntire - Vocals - I'm A Survivor
TTITLE11=Lonestar - Vocals - With Me 
TTITLE12=Montgomery Gentry - Vocals - Cold One Comin' On
TTITLE13=Brad Paisley - Vocals - Wrapped Around
TTITLE14=Tracy Byrd - Vocals - Just Let Me Be In Love
TTITLE15=Steve Holy - Vocals - Good Morning Beautiful
TTITLE16=Jamie O'Neal - Vocals - Shiver
TTITLE17=Clay Walker - Vocals - If You Ever Feel Like Lovin' Me Again
EXTD=
EXTT0=
EXTT1=
EXTT2=
EXTT3=
EXTT4=
EXTT5=
EXTT6=
EXTT7=
EXTT8=
EXTT9=
EXTT10=
EXTT11=
EXTT12=
EXTT13=
EXTT14=
EXTT15=
EXTT16=
EXTT17=
PLAYORDER=
